<?xml version="1.0" encoding="utf-8"?><!-- Uploaded to: SVG Repo, www.svgrepo.com, Generator: SVG Repo Mixer Tools -->
<svg fill="#000000" width="800px" height="800px" viewBox="0 0 24 24" id="phone-book" data-name="Flat Line" xmlns="http://www.w3.org/2000/svg" class="icon flat-line"><path id="secondary" d="M20,3H5A1,1,0,0,0,4,4V20a1,1,0,0,0,1,1H20a1,1,0,0,0,1-1V4A1,1,0,0,0,20,3ZM16,16H10V15a3,3,0,0,1,3-3,2,2,0,1,1,2-2,2,2,0,0,1-2,2,3,3,0,0,1,3,3Z" style="fill: rgb(44, 169, 188); stroke-width: 2;"></path><path id="primary" d="M20,21H5a1,1,0,0,1-1-1V4A1,1,0,0,1,5,3H20a1,1,0,0,1,1,1V20A1,1,0,0,1,20,21ZM5,8H3m2,4H3m2,4H3M13,8a2,2,0,1,0,2,2A2,2,0,0,0,13,8Zm3,7a3,3,0,0,0-3-3h0a3,3,0,0,0-3,3v1h6Z" style="fill: none; stroke: rgb(0, 0, 0); stroke-linecap: round; stroke-linejoin: round; stroke-width: 2;"></path></svg>